<?xml version="1.0" encoding="utf-8"?>
<!-- Generator: Adobe Illustrator 24.3.0, SVG Export Plug-In . SVG Version: 6.00 Build 0)  -->
<svg version="1.1" id="Layer_1" xmlns="http://www.w3.org/2000/svg" xmlns:xlink="http://www.w3.org/1999/xlink" x="0px" y="0px"
	 viewBox="0 0 255.1 85" style="enable-background:new 0 0 255.1 85;" xml:space="preserve">
<style type="text/css">
	.st0{fill:#810032;}
	.st1{fill:#818081;}
	.st2{fill:#FFFFFF;}
</style>
<g>
	<g>
		<path class="st2" d="M9.6,20.5c0-0.4-0.1-0.7-0.3-1c-0.2-0.2-0.5-0.4-1.1-0.4v-0.7H27c3.7,0,6.3,0.7,7.9,2.1
			c1.6,1.4,2.4,3.3,2.4,5.8c0,2.8-0.8,4.9-2.4,6.5c-1.6,1.5-4.2,2.3-7.8,2.3H14.3v10.7c0,0.4,0.1,0.7,0.3,1c0.2,0.2,0.5,0.4,1.1,0.4
			v0.7H8.3v-0.7c0.5,0,0.9-0.1,1.1-0.4c0.2-0.2,0.3-0.6,0.3-1V20.5z M26.9,31.3c2.3,0,3.9-0.4,4.8-1.3c0.9-0.9,1.4-2,1.4-3.5
			c0-1.5-0.4-2.5-1.3-3.2c-0.8-0.7-2.5-1-4.9-1H14.3v9H26.9z"/>
		<path class="st2" d="M40.9,47.2c0.6,0,1-0.1,1.1-0.3c0.2-0.2,0.3-0.6,0.3-1.3V25.5c0-0.6-0.1-1.1-0.3-1.3
			c-0.2-0.2-0.5-0.3-1.1-0.3v-0.7h6.2V24c-0.6,0-1,0.1-1.1,0.3c-0.2,0.2-0.3,0.6-0.3,1.3v20.1c0,0.6,0.1,1.1,0.3,1.3
			c0.2,0.2,0.5,0.3,1.1,0.3v0.7h-6.2V47.2z"/>
		<path class="st2" d="M74.6,30.6c0.1-0.3,0.1-0.5,0.1-0.6c0-0.2-0.2-0.5-0.6-0.9c-0.4-0.4-1.1-0.9-1.9-1.3
			c-0.8-0.4-1.9-0.8-3.1-1.2s-2.6-0.5-4.2-0.5c-1.5,0-2.9,0.2-4.2,0.7c-1.3,0.5-2.4,1.2-3.3,2.1c-0.9,0.9-1.6,1.9-2.1,3.2
			c-0.5,1.2-0.8,2.5-0.8,4c0,1.2,0.2,2.4,0.7,3.5c0.5,1.1,1.2,2.1,2.1,2.9c0.9,0.8,2.1,1.5,3.5,2c1.4,0.5,3,0.7,4.9,0.7
			c0.6,0,1.2,0,1.9-0.1s1.5-0.2,2.2-0.4c0.8-0.2,1.5-0.4,2.1-0.6c0.7-0.3,1.2-0.6,1.7-0.9v-3.3h-5.1c-0.6,0-0.9,0.1-1.1,0.3
			c-0.2,0.2-0.3,0.5-0.3,1h-0.7v-5.4h0.7c0,0.3,0.1,0.5,0.3,0.6c0.2,0.2,0.6,0.3,1.1,0.3h9.5v0.7c-0.3,0.1-0.5,0.2-0.6,0.3
			c-0.1,0.1-0.2,0.4-0.2,0.7v3.7c0,0.5,0.3,0.8,0.8,0.9v0.6c-0.9,0.9-1.8,1.6-2.9,2.2c-1.1,0.6-2.2,1.1-3.3,1.5
			c-1.1,0.4-2.3,0.6-3.4,0.8C67.3,48,66.2,48,65.2,48c-2,0-3.9-0.3-5.7-0.8c-1.7-0.5-3.3-1.3-4.5-2.4c-1.3-1.1-2.3-2.4-3-4
			c-0.7-1.6-1.1-3.4-1.1-5.4c0-1.5,0.3-3,0.9-4.5c0.6-1.5,1.5-2.8,2.7-4c1.2-1.2,2.7-2.2,4.4-2.9c1.8-0.7,3.8-1.1,6.1-1.1
			c1.6,0,3,0.2,4.3,0.5c1.3,0.3,2.4,0.7,3.3,1.1c0.9,0.4,1.7,0.8,2.3,1.1c0.6,0.3,1,0.5,1.1,0.5c0.2,0,0.4,0,0.4-0.1
			c0.1-0.1,0.1-0.2,0.2-0.3l0.7,0.3l-2.1,4.9L74.6,30.6z"/>
		<path class="st2" d="M81.9,47.2c0.6,0,1-0.1,1.2-0.3c0.2-0.2,0.3-0.6,0.3-1.3V25.5c0-0.6-0.1-1.1-0.3-1.3
			c-0.2-0.2-0.6-0.3-1.2-0.3v-0.7h8.1V24c-0.6,0-1,0-1.2,0.1c-0.2,0.1-0.3,0.2-0.3,0.4c0,0.1,0.2,0.4,0.6,0.9l15.1,17.3V25.5
			c0-0.6-0.1-1.1-0.3-1.3c-0.2-0.2-0.6-0.3-1.2-0.3v-0.7h6.1V24c-0.6,0-1,0.1-1.2,0.3c-0.2,0.2-0.3,0.6-0.3,1.3v20.1
			c0,0.6,0.1,1.1,0.3,1.3c0.2,0.2,0.6,0.3,1.2,0.3v0.7h-7.5v-0.7c0.7,0,1.2,0,1.3-0.1c0.1-0.1,0.2-0.2,0.2-0.4
			c0-0.2-0.1-0.3-0.2-0.5c-0.1-0.1-0.3-0.3-0.5-0.5l-15.8-18v18c0,0.6,0.1,1.1,0.3,1.3c0.2,0.2,0.6,0.3,1.2,0.3v0.7h-6.1V47.2z"/>
		<path class="st2" d="M110.6,47.2c0.6,0,1-0.1,1.2-0.4c0.2-0.3,0.4-0.6,0.6-1l8.8-20.2c0.2-0.4,0.3-0.8,0.3-0.9
			c0-0.2-0.1-0.4-0.3-0.5c-0.2-0.1-0.6-0.2-1.1-0.3v-0.6h9V24c-0.3,0-0.6,0-0.9,0.1c-0.3,0.1-0.4,0.3-0.4,0.5c0,0.2,0,0.4,0.1,0.6
			c0.1,0.2,0.2,0.4,0.3,0.6l9.5,20.3c0.1,0.3,0.3,0.5,0.5,0.8c0.2,0.2,0.6,0.4,1.2,0.4v0.7h-7v-0.7c0.7,0,1.1-0.1,1.3-0.2
			c0.2-0.1,0.3-0.3,0.3-0.5c0-0.3,0-0.5-0.1-0.7c-0.1-0.2-0.1-0.4-0.2-0.6l-2.3-4.7H118l-1.9,4.2c-0.1,0.3-0.3,0.7-0.5,0.9
			c-0.2,0.3-0.3,0.5-0.3,0.7c0,0.2,0.1,0.4,0.3,0.5c0.2,0.1,0.6,0.2,1.2,0.2v0.7h-6.2V47.2z M119.3,37.5h10.9l-5.6-11.7L119.3,37.5z
			"/>
		<path class="st2" d="M161.9,27.8c0-0.5-0.1-0.8-0.3-1c-0.2-0.2-0.6-0.3-1.1-0.3h-8.6v19.2c0,0.6,0.1,1.1,0.3,1.3s0.5,0.3,1.1,0.3
			v0.7h-6.5v-0.7c0.6,0,1-0.1,1.1-0.3c0.2-0.2,0.3-0.6,0.3-1.3V26.4h-8.6c-0.6,0-0.9,0.1-1.1,0.3c-0.2,0.2-0.3,0.5-0.3,1h-0.7V22
			h0.7c0,0.5,0.1,0.8,0.3,1c0.2,0.2,0.6,0.3,1.1,0.3h21c0.6,0,0.9-0.1,1.1-0.3c0.2-0.2,0.3-0.5,0.3-1h0.7v5.8H161.9z"/>
		<path class="st2" d="M160.6,47.2c0.6,0,1-0.1,1.2-0.4c0.2-0.3,0.4-0.6,0.6-1l8.8-20.2c0.2-0.4,0.3-0.8,0.3-0.9
			c0-0.2-0.1-0.4-0.3-0.5c-0.2-0.1-0.6-0.2-1.1-0.3v-0.6h9V24c-0.3,0-0.6,0-0.9,0.1c-0.3,0.1-0.4,0.3-0.4,0.5c0,0.2,0,0.4,0.1,0.6
			c0.1,0.2,0.2,0.4,0.3,0.6l9.5,20.3c0.1,0.3,0.3,0.5,0.5,0.8c0.2,0.2,0.6,0.4,1.2,0.4v0.7h-7v-0.7c0.7,0,1.1-0.1,1.3-0.2
			c0.2-0.1,0.3-0.3,0.3-0.5c0-0.3,0-0.5-0.1-0.7c-0.1-0.2-0.1-0.4-0.2-0.6l-2.3-4.7H168l-1.9,4.2c-0.1,0.3-0.3,0.7-0.5,0.9
			c-0.2,0.3-0.3,0.5-0.3,0.7c0,0.2,0.1,0.4,0.3,0.5c0.2,0.1,0.6,0.2,1.2,0.2v0.7h-6.2V47.2z M169.2,37.5h10.9l-5.6-11.7L169.2,37.5z
			"/>
		<path class="st2" d="M196.2,45.6c0,0.6,0.1,1.1,0.3,1.3c0.2,0.2,0.5,0.3,1.1,0.3v0.7h-6.2v-0.7c0.6,0,1-0.1,1.1-0.3
			c0.2-0.2,0.3-0.6,0.3-1.3V25.5c0-0.6-0.1-1.1-0.3-1.3c-0.2-0.2-0.5-0.3-1.1-0.3v-0.7h17.1c2.5,0,4.2,0.6,5.4,1.8s1.7,2.9,1.7,5
			c0,2.2-0.6,3.8-1.8,4.9c-1.2,1.1-2.8,1.7-5,1.8l6.1,9.4c0.3,0.4,0.5,0.7,0.7,0.8c0.2,0.1,0.4,0.2,0.7,0.2v0.7h-6v-0.7
			c0.4,0,0.7,0,0.8-0.1c0.1-0.1,0.1-0.2,0.1-0.4c0-0.2-0.1-0.4-0.2-0.6c-0.1-0.2-0.3-0.4-0.4-0.8l-5.5-8.6h-8.8V45.6z M208.1,33.7
			c1.3,0,2.3-0.3,2.8-0.9c0.6-0.6,0.8-1.5,0.8-2.7c0-1.3-0.3-2.3-0.9-2.9c-0.6-0.6-1.7-0.9-3.4-0.9h-11.3v7.5H208.1z"/>
		<path class="st2" d="M232.8,23c2.2,0,4.1,0.3,5.8,1c1.7,0.7,3.2,1.6,4.4,2.7c1.2,1.1,2.2,2.5,2.8,4c0.6,1.5,1,3.2,1,4.9
			c0,1.7-0.3,3.4-1,4.9c-0.7,1.5-1.6,2.9-2.8,4c-1.2,1.1-2.7,2-4.4,2.6c-1.7,0.6-3.7,0.9-5.8,0.9c-2.2,0-4.1-0.3-5.8-0.9
			c-1.7-0.6-3.2-1.5-4.4-2.6c-1.2-1.1-2.2-2.5-2.8-4c-0.7-1.5-1-3.2-1-4.9c0-1.7,0.3-3.4,1-4.9c0.6-1.5,1.6-2.9,2.8-4
			c1.2-1.1,2.7-2,4.4-2.7C228.7,23.3,230.6,23,232.8,23z M232.8,26.1c-1.6,0-3,0.2-4.3,0.7c-1.3,0.5-2.4,1.2-3.3,2
			c-0.9,0.9-1.6,1.9-2.1,3c-0.5,1.2-0.7,2.4-0.7,3.7c0,1.3,0.2,2.6,0.7,3.7c0.5,1.2,1.2,2.2,2.1,3s2,1.5,3.3,2
			c1.3,0.5,2.7,0.8,4.3,0.8c1.6,0,3-0.3,4.3-0.8c1.3-0.5,2.4-1.2,3.3-2s1.6-1.9,2.1-3s0.7-2.4,0.7-3.7c0-1.3-0.2-2.5-0.7-3.7
			c-0.5-1.2-1.2-2.2-2.1-3c-0.9-0.9-2-1.5-3.3-2C235.8,26.3,234.4,26.1,232.8,26.1z"/>
	</g>
	<g>
		<path class="st2" d="M76.9,66.2c0.2,0,0.4-0.1,0.5-0.2c0.1-0.1,0.2-0.2,0.2-0.4l3.6-8.3c0.1-0.2,0.1-0.3,0.1-0.4
			c0-0.1,0-0.1-0.1-0.2c-0.1-0.1-0.2-0.1-0.4-0.1v-0.2h3.7v0.3c-0.1,0-0.2,0-0.4,0.1s-0.2,0.1-0.2,0.2c0,0.1,0,0.2,0.1,0.2
			c0,0.1,0.1,0.2,0.1,0.2l3.9,8.3c0,0.1,0.1,0.2,0.2,0.3c0.1,0.1,0.3,0.1,0.5,0.1v0.3h-2.9v-0.3c0.3,0,0.5,0,0.5-0.1
			s0.1-0.1,0.1-0.2c0-0.1,0-0.2,0-0.3c0-0.1-0.1-0.2-0.1-0.2l-0.9-1.9h-5.6l-0.8,1.7c-0.1,0.1-0.1,0.3-0.2,0.4
			c-0.1,0.1-0.1,0.2-0.1,0.3c0,0.1,0,0.2,0.1,0.2c0.1,0,0.3,0.1,0.5,0.1v0.3h-2.6V66.2z M80.4,62.2h4.5l-2.3-4.8L80.4,62.2z"/>
		<path class="st2" d="M89.8,57.3c0-0.3,0-0.4-0.1-0.5c-0.1-0.1-0.2-0.1-0.5-0.1v-0.3h6.3c1.3,0,2.2,0.2,2.7,0.7s0.8,1.1,0.8,2.1
			c0,0.2,0,0.4-0.1,0.6c-0.1,0.2-0.1,0.4-0.3,0.6c-0.1,0.2-0.3,0.3-0.5,0.5S97.8,61,97.5,61v0c0.6,0.1,1,0.4,1.4,0.8
			c0.4,0.4,0.5,1,0.5,1.7c0,1-0.3,1.7-0.9,2.2c-0.6,0.5-1.6,0.7-2.9,0.7h-6.4v-0.3c0.2,0,0.4,0,0.5-0.1c0.1-0.1,0.1-0.3,0.1-0.5
			V57.3z M95.5,60.5c0.4,0,0.8,0,1.1-0.1c0.3-0.1,0.5-0.2,0.6-0.3s0.3-0.3,0.3-0.5c0-0.2,0.1-0.4,0.1-0.6c0-0.5-0.1-0.8-0.4-1.1
			c-0.3-0.3-0.8-0.4-1.6-0.4h-4.2v2.9H95.5z M95.8,65.2c0.4,0,0.8,0,1-0.1c0.3-0.1,0.5-0.2,0.6-0.3c0.1-0.1,0.2-0.3,0.3-0.5
			c0.1-0.2,0.1-0.5,0.1-0.8c0-0.6-0.2-1-0.5-1.3c-0.3-0.3-0.9-0.4-1.6-0.4h-4.4v3.4H95.8z"/>
		<path class="st2" d="M106.5,56.3c0.9,0,1.7,0.1,2.4,0.4c0.7,0.3,1.3,0.6,1.8,1.1s0.9,1,1.2,1.6c0.3,0.6,0.4,1.3,0.4,2
			c0,0.7-0.1,1.4-0.4,2c-0.3,0.6-0.7,1.2-1.2,1.6s-1.1,0.8-1.8,1.1c-0.7,0.3-1.5,0.4-2.4,0.4c-0.9,0-1.7-0.1-2.4-0.4
			c-0.7-0.3-1.3-0.6-1.8-1.1s-0.9-1-1.2-1.6c-0.3-0.6-0.4-1.3-0.4-2c0-0.7,0.1-1.4,0.4-2c0.3-0.6,0.7-1.2,1.2-1.6s1.1-0.8,1.8-1.1
			C104.8,56.4,105.6,56.3,106.5,56.3z M106.5,57.5c-0.7,0-1.2,0.1-1.8,0.3c-0.5,0.2-1,0.5-1.3,0.8c-0.4,0.4-0.6,0.8-0.8,1.2
			c-0.2,0.5-0.3,1-0.3,1.5c0,0.5,0.1,1.1,0.3,1.5c0.2,0.5,0.5,0.9,0.8,1.2s0.8,0.6,1.3,0.8c0.5,0.2,1.1,0.3,1.8,0.3s1.2-0.1,1.8-0.3
			c0.5-0.2,1-0.5,1.3-0.8s0.6-0.8,0.8-1.2c0.2-0.5,0.3-1,0.3-1.5c0-0.5-0.1-1-0.3-1.5s-0.5-0.9-0.8-1.2c-0.4-0.4-0.8-0.6-1.3-0.8
			C107.7,57.6,107.1,57.5,106.5,57.5z"/>
		<path class="st2" d="M122.6,59.4c0-0.1,0-0.2,0-0.3c0-0.1-0.1-0.2-0.3-0.4c-0.2-0.2-0.4-0.4-0.8-0.5c-0.3-0.2-0.8-0.3-1.3-0.5
			c-0.5-0.1-1.1-0.2-1.7-0.2c-0.6,0-1.2,0.1-1.7,0.3c-0.5,0.2-1,0.5-1.3,0.8c-0.4,0.4-0.7,0.8-0.9,1.3c-0.2,0.5-0.3,1-0.3,1.6
			c0,0.5,0.1,1,0.3,1.4s0.5,0.8,0.8,1.2c0.4,0.3,0.8,0.6,1.4,0.8s1.2,0.3,2,0.3c0.2,0,0.5,0,0.8-0.1c0.3,0,0.6-0.1,0.9-0.2
			c0.3-0.1,0.6-0.2,0.9-0.3c0.3-0.1,0.5-0.2,0.7-0.4v-1.4h-2.1c-0.2,0-0.4,0-0.5,0.1c-0.1,0.1-0.1,0.2-0.1,0.4h-0.3v-2.2h0.3
			c0,0.1,0,0.2,0.1,0.3c0.1,0.1,0.2,0.1,0.5,0.1h3.9v0.3c-0.1,0-0.2,0.1-0.3,0.1c0,0.1-0.1,0.1-0.1,0.3V64c0,0.2,0.1,0.3,0.3,0.4
			v0.2c-0.4,0.4-0.7,0.7-1.2,0.9c-0.4,0.3-0.9,0.5-1.4,0.6s-0.9,0.3-1.4,0.3c-0.5,0.1-0.9,0.1-1.3,0.1c-0.8,0-1.6-0.1-2.3-0.3
			c-0.7-0.2-1.3-0.5-1.9-1c-0.5-0.4-0.9-1-1.2-1.6c-0.3-0.6-0.4-1.4-0.4-2.2c0-0.6,0.1-1.2,0.4-1.8c0.3-0.6,0.6-1.2,1.1-1.6
			c0.5-0.5,1.1-0.9,1.8-1.2c0.7-0.3,1.6-0.5,2.5-0.5c0.6,0,1.2,0.1,1.7,0.2c0.5,0.1,1,0.3,1.4,0.4s0.7,0.3,0.9,0.4
			c0.2,0.1,0.4,0.2,0.5,0.2c0.1,0,0.2,0,0.2-0.1c0,0,0.1-0.1,0.1-0.1l0.3,0.1l-0.9,2L122.6,59.4z"/>
		<path class="st2" d="M124.2,66.2c0.2,0,0.4-0.1,0.5-0.2c0.1-0.1,0.2-0.2,0.2-0.4l3.6-8.3c0.1-0.2,0.1-0.3,0.1-0.4
			c0-0.1,0-0.1-0.1-0.2c-0.1-0.1-0.2-0.1-0.4-0.1v-0.2h3.7v0.3c-0.1,0-0.2,0-0.4,0.1s-0.2,0.1-0.2,0.2c0,0.1,0,0.2,0.1,0.2
			c0,0.1,0.1,0.2,0.1,0.2l3.9,8.3c0,0.1,0.1,0.2,0.2,0.3c0.1,0.1,0.3,0.1,0.5,0.1v0.3h-2.9v-0.3c0.3,0,0.5,0,0.5-0.1
			c0.1,0,0.1-0.1,0.1-0.2c0-0.1,0-0.2,0-0.3s-0.1-0.2-0.1-0.2l-0.9-1.9h-5.6l-0.8,1.7c-0.1,0.1-0.1,0.3-0.2,0.4
			c-0.1,0.1-0.1,0.2-0.1,0.3c0,0.1,0,0.2,0.1,0.2c0.1,0,0.3,0.1,0.5,0.1v0.3h-2.6V66.2z M127.7,62.2h4.5l-2.3-4.8L127.7,62.2z"/>
		<path class="st2" d="M137.2,57.3c0-0.3,0-0.4-0.1-0.5c-0.1-0.1-0.2-0.1-0.5-0.1v-0.3h5.5c0.9,0,1.7,0.1,2.3,0.4
			c0.7,0.3,1.2,0.6,1.6,1.1c0.4,0.5,0.7,1,0.9,1.6c0.2,0.6,0.3,1.3,0.3,2c0,0.7-0.1,1.4-0.3,2c-0.2,0.6-0.5,1.2-0.9,1.6
			c-0.4,0.5-1,0.8-1.6,1.1c-0.7,0.3-1.4,0.4-2.3,0.4h-5.5v-0.3c0.2,0,0.4,0,0.5-0.1c0.1-0.1,0.1-0.3,0.1-0.5V57.3z M141.9,65.2
			c0.7,0,1.3-0.1,1.8-0.3c0.5-0.2,0.9-0.5,1.2-0.8c0.3-0.3,0.5-0.7,0.7-1.2c0.1-0.4,0.2-0.9,0.2-1.5c0-0.5-0.1-1-0.2-1.5
			c-0.1-0.5-0.4-0.8-0.7-1.2s-0.7-0.6-1.2-0.8c-0.5-0.2-1.1-0.3-1.8-0.3h-3.3v7.5H141.9z"/>
		<path class="st2" d="M153.8,56.3c0.9,0,1.7,0.1,2.4,0.4s1.3,0.6,1.8,1.1s0.9,1,1.2,1.6s0.4,1.3,0.4,2c0,0.7-0.1,1.4-0.4,2
			s-0.7,1.2-1.2,1.6s-1.1,0.8-1.8,1.1c-0.7,0.3-1.5,0.4-2.4,0.4s-1.7-0.1-2.4-0.4c-0.7-0.3-1.3-0.6-1.8-1.1s-0.9-1-1.2-1.6
			s-0.4-1.3-0.4-2c0-0.7,0.1-1.4,0.4-2s0.7-1.2,1.2-1.6s1.1-0.8,1.8-1.1C152.1,56.4,152.9,56.3,153.8,56.3z M153.8,57.5
			c-0.7,0-1.2,0.1-1.8,0.3c-0.5,0.2-1,0.5-1.3,0.8c-0.4,0.4-0.6,0.8-0.8,1.2s-0.3,1-0.3,1.5c0,0.5,0.1,1.1,0.3,1.5
			c0.2,0.5,0.5,0.9,0.8,1.2c0.4,0.4,0.8,0.6,1.3,0.8c0.5,0.2,1.1,0.3,1.8,0.3s1.2-0.1,1.8-0.3c0.5-0.2,1-0.5,1.3-0.8
			c0.4-0.4,0.6-0.8,0.8-1.2c0.2-0.5,0.3-1,0.3-1.5c0-0.5-0.1-1-0.3-1.5c-0.2-0.5-0.5-0.9-0.8-1.2c-0.4-0.4-0.8-0.6-1.3-0.8
			C155,57.6,154.4,57.5,153.8,57.5z"/>
		<path class="st2" d="M161.3,63.6c0,0.2,0,0.3,0,0.3c0,0.1,0.1,0.3,0.4,0.4s0.5,0.3,0.9,0.4c0.4,0.1,0.8,0.3,1.3,0.4
			c0.5,0.1,1,0.1,1.6,0.1c1.1,0,1.9-0.1,2.5-0.4c0.6-0.3,0.9-0.7,0.9-1.2c0-0.5-0.2-0.8-0.6-1c-0.4-0.2-0.9-0.3-1.5-0.4
			c-0.6-0.1-1.3-0.1-2-0.2c-0.7,0-1.4-0.1-2-0.3c-0.6-0.2-1.1-0.4-1.5-0.8c-0.4-0.4-0.6-0.9-0.6-1.6c0-0.6,0.1-1.1,0.4-1.5
			c0.2-0.4,0.6-0.7,0.9-1c0.4-0.3,0.9-0.4,1.4-0.5c0.5-0.1,1.1-0.2,1.6-0.2c0.6,0,1.1,0,1.6,0.1c0.5,0.1,0.8,0.2,1.2,0.3
			c0.3,0.1,0.6,0.2,0.8,0.3s0.3,0.1,0.4,0.1c0.1,0,0.1,0,0.2-0.1c0,0,0.1-0.1,0.2-0.3l0.3,0.1l-0.8,2.2l-0.3-0.1c0,0,0-0.1,0-0.1
			c0,0,0-0.1,0-0.2c0-0.1-0.1-0.3-0.3-0.4c-0.2-0.1-0.5-0.3-0.8-0.4c-0.3-0.1-0.7-0.2-1.2-0.3s-0.9-0.1-1.3-0.1
			c-0.6,0-1.1,0-1.4,0.1c-0.4,0.1-0.7,0.2-0.9,0.4c-0.2,0.2-0.3,0.3-0.4,0.5c-0.1,0.2-0.1,0.4-0.1,0.6c0,0.4,0.2,0.8,0.6,0.9
			c0.4,0.2,0.9,0.3,1.5,0.4c0.6,0.1,1.3,0.1,2,0.2s1.4,0.1,2,0.3s1.1,0.4,1.5,0.7c0.4,0.3,0.6,0.9,0.6,1.5c0,1.1-0.4,1.9-1.2,2.4
			s-2.1,0.8-3.8,0.8c-0.6,0-1.1,0-1.6-0.1c-0.5-0.1-0.9-0.2-1.3-0.3c-0.4-0.1-0.7-0.2-0.9-0.3c-0.3-0.1-0.5-0.1-0.6-0.1
			c-0.1,0-0.2,0-0.3,0.1c-0.1,0.1-0.1,0.2-0.1,0.2l-0.3-0.1l0.9-2.3L161.3,63.6z"/>
	</g>
	<rect x="8.3" y="50.9" class="st2" width="238.6" height="1.2"/>
</g>
</svg>
